<mxfile host="app.diagrams.net" agent="Mozilla/5.0 (X11; Linux x86_64; rv:132.0) Gecko/20100101 Firefox/132.0" version="25.0.3">
  <diagram name="Page-1" id="g66AYG55TtXyA1JEMtzF">
    <mxGraphModel dx="2524" dy="791" grid="1" gridSize="10" guides="1" tooltips="1" connect="1" arrows="1" fold="1" page="1" pageScale="1" pageWidth="850" pageHeight="1100" math="1" shadow="0">
      <root>
        <mxCell id="0" />
        <mxCell id="1" parent="0" />
        <mxCell id="HNc6YtDHOVWQGCZwxuty-1" value="" style="rounded=0;whiteSpace=wrap;html=1;fillColor=#FFF1AA;" parent="1" vertex="1">
          <mxGeometry x="-817.5" y="270" width="325" height="60" as="geometry" />
        </mxCell>
        <mxCell id="HNc6YtDHOVWQGCZwxuty-3" value="&lt;div&gt;Initial error covariance matrix &lt;br&gt;&lt;/div&gt;&lt;div&gt;\(\mathbf{P}_0 = \mathbb{E} \bigl\{(\mathbf{s} - \widehat{\mathbf{s}}_0)(\mathbf{s} - \widehat{\mathbf{s}}_0)^H \bigr\} = \mathbf{Q} \in \mathbb{C}^{K \times K} \)&lt;br&gt;&lt;/div&gt;" style="text;html=1;align=center;verticalAlign=middle;whiteSpace=wrap;rounded=0;" parent="1" vertex="1">
          <mxGeometry x="-800" y="272.5" width="310" height="55" as="geometry" />
        </mxCell>
        <mxCell id="HNc6YtDHOVWQGCZwxuty-5" value="" style="rounded=1;whiteSpace=wrap;html=1;fillColor=#B1DDF0;" parent="1" vertex="1">
          <mxGeometry x="-820" y="150" width="340" height="100" as="geometry" />
        </mxCell>
        <mxCell id="HNc6YtDHOVWQGCZwxuty-6" value="&lt;div&gt;Payload signal vector transmitted by UEs \( \mathbf{s}\)&lt;br&gt;&lt;/div&gt;&lt;div&gt;&lt;br&gt;&lt;/div&gt;" style="text;html=1;align=center;verticalAlign=middle;whiteSpace=wrap;rounded=0;" parent="1" vertex="1">
          <mxGeometry x="-810" y="165" width="310" height="80" as="geometry" />
        </mxCell>
        <mxCell id="_8BapqA1ZgfuwaxU-zGh-16" style="edgeStyle=orthogonalEdgeStyle;rounded=0;orthogonalLoop=1;jettySize=auto;html=1;entryX=0.5;entryY=0;entryDx=0;entryDy=0;" parent="1" source="HNc6YtDHOVWQGCZwxuty-7" target="_8BapqA1ZgfuwaxU-zGh-12" edge="1">
          <mxGeometry relative="1" as="geometry" />
        </mxCell>
        <mxCell id="HNc6YtDHOVWQGCZwxuty-7" value="" style="rounded=1;whiteSpace=wrap;html=1;fillColor=#E1D5E7;" parent="1" vertex="1">
          <mxGeometry x="-460" y="150" width="670" height="90" as="geometry" />
        </mxCell>
        <mxCell id="HNc6YtDHOVWQGCZwxuty-9" value="UEs" style="text;html=1;align=center;verticalAlign=middle;whiteSpace=wrap;rounded=0;" parent="1" vertex="1">
          <mxGeometry x="-530" y="230" width="60" height="30" as="geometry" />
        </mxCell>
        <mxCell id="HNc6YtDHOVWQGCZwxuty-10" value="&lt;div&gt;AP \(1\)&lt;/div&gt;&lt;div&gt;&lt;br&gt;&lt;/div&gt;" style="text;html=1;align=center;verticalAlign=middle;whiteSpace=wrap;rounded=0;" parent="1" vertex="1">
          <mxGeometry x="155" y="230" width="60" height="20" as="geometry" />
        </mxCell>
        <mxCell id="e89aCWbwkYclgEGQYD-0-4" style="edgeStyle=orthogonalEdgeStyle;rounded=0;orthogonalLoop=1;jettySize=auto;html=1;entryX=0;entryY=0.5;entryDx=0;entryDy=0;" edge="1" parent="1" source="HNc6YtDHOVWQGCZwxuty-11" target="HNc6YtDHOVWQGCZwxuty-19">
          <mxGeometry relative="1" as="geometry" />
        </mxCell>
        <mxCell id="HNc6YtDHOVWQGCZwxuty-11" value="&lt;div&gt;Received signal \(\mathbf{y}_{1} = \mathbf{H}_1 \mathbf{s} + \mathbf{n}_1 \in \mathbb{C}^N \)&lt;br&gt;&lt;/div&gt;&lt;div&gt;&lt;br&gt;&lt;/div&gt;" style="text;html=1;align=center;verticalAlign=middle;whiteSpace=wrap;rounded=0;" parent="1" vertex="1">
          <mxGeometry x="-440" y="180" width="140" height="30" as="geometry" />
        </mxCell>
        <mxCell id="e89aCWbwkYclgEGQYD-0-5" style="edgeStyle=orthogonalEdgeStyle;rounded=0;orthogonalLoop=1;jettySize=auto;html=1;" edge="1" parent="1" source="HNc6YtDHOVWQGCZwxuty-19" target="HNc6YtDHOVWQGCZwxuty-23">
          <mxGeometry relative="1" as="geometry" />
        </mxCell>
        <mxCell id="HNc6YtDHOVWQGCZwxuty-19" value="&lt;div&gt;Find \(\mathbf{T}_1\) and \(\mathbf{P}_1\)&lt;/div&gt;" style="rounded=1;whiteSpace=wrap;html=1;" parent="1" vertex="1">
          <mxGeometry x="-270" y="177.5" width="157.5" height="35" as="geometry" />
        </mxCell>
        <mxCell id="HNc6YtDHOVWQGCZwxuty-13" value="" style="edgeStyle=orthogonalEdgeStyle;rounded=0;orthogonalLoop=1;jettySize=auto;html=1;" parent="1" source="HNc6YtDHOVWQGCZwxuty-5" target="HNc6YtDHOVWQGCZwxuty-11" edge="1">
          <mxGeometry relative="1" as="geometry">
            <Array as="points">
              <mxPoint x="-430" y="200" />
              <mxPoint x="-430" y="200" />
            </Array>
          </mxGeometry>
        </mxCell>
        <mxCell id="HNc6YtDHOVWQGCZwxuty-23" value="&lt;div&gt;Signal estimation &lt;br&gt;&lt;/div&gt;&lt;div&gt;\(&lt;br&gt;\widehat{\mathbf{s}}_1 = \widehat{\mathbf{s}}_0 + \mathbf{T}_1 \bigl(\mathbf{y}_1 - \widehat{\mathbf{H}}_1 \widehat{\mathbf{s}}_0 \bigr) \\&lt;br&gt;&lt;br&gt;\)&lt;br&gt;&lt;/div&gt;" style="rounded=1;whiteSpace=wrap;html=1;" parent="1" vertex="1">
          <mxGeometry x="-57.5" y="170" width="230" height="50" as="geometry" />
        </mxCell>
        <mxCell id="_8BapqA1ZgfuwaxU-zGh-4" value="" style="rounded=1;whiteSpace=wrap;html=1;fillColor=#E1D5E7;" parent="1" vertex="1">
          <mxGeometry x="-460" y="430" width="670" height="80" as="geometry" />
        </mxCell>
        <mxCell id="_8BapqA1ZgfuwaxU-zGh-5" value="&lt;div&gt;AP \(l\)&lt;/div&gt;&lt;div&gt;&lt;br&gt;&lt;/div&gt;" style="text;html=1;align=center;verticalAlign=middle;whiteSpace=wrap;rounded=0;" parent="1" vertex="1">
          <mxGeometry x="155" y="500" width="60" height="20" as="geometry" />
        </mxCell>
        <mxCell id="_8BapqA1ZgfuwaxU-zGh-6" value="&lt;div&gt;Received signal \(\mathbf{y}_{l} = \mathbf{H}_l \mathbf{s} + &lt;br&gt;\mathbf{n}_l \in \mathbf{C}^N \)&lt;br&gt;&lt;/div&gt;" style="text;html=1;align=center;verticalAlign=middle;whiteSpace=wrap;rounded=0;" parent="1" vertex="1">
          <mxGeometry x="-445" y="450" width="155" height="25" as="geometry" />
        </mxCell>
        <mxCell id="_8BapqA1ZgfuwaxU-zGh-7" style="edgeStyle=orthogonalEdgeStyle;rounded=0;orthogonalLoop=1;jettySize=auto;html=1;entryX=0;entryY=0.5;entryDx=0;entryDy=0;" parent="1" source="_8BapqA1ZgfuwaxU-zGh-8" target="_8BapqA1ZgfuwaxU-zGh-9" edge="1">
          <mxGeometry relative="1" as="geometry" />
        </mxCell>
        <mxCell id="_8BapqA1ZgfuwaxU-zGh-8" value="&lt;div&gt;Update \(\mathbf{T}_l\) and \(\mathbf{P}_l\)&lt;/div&gt;" style="rounded=1;whiteSpace=wrap;html=1;" parent="1" vertex="1">
          <mxGeometry x="-262.5" y="445" width="150" height="40" as="geometry" />
        </mxCell>
        <mxCell id="_8BapqA1ZgfuwaxU-zGh-9" value="&lt;div&gt;Signal estimation&lt;/div&gt;&lt;div&gt;\(&lt;br&gt;\begin{split}&lt;br&gt;\widehat{\mathbf{s}}_l &amp;amp; = \widehat{\mathbf{s}}_{(l-1)} + \mathbf{T}_l \bigl(\mathbf{y}_l - \widehat{\mathbf{H}}_l \widehat{\mathbf{s}}_{(l-1)} \bigr) \\&lt;br&gt;\end{split}&lt;br&gt;\)&lt;br&gt;&lt;/div&gt;" style="rounded=1;whiteSpace=wrap;html=1;" parent="1" vertex="1">
          <mxGeometry x="-77.5" y="440" width="250" height="50" as="geometry" />
        </mxCell>
        <mxCell id="_8BapqA1ZgfuwaxU-zGh-24" style="edgeStyle=orthogonalEdgeStyle;rounded=0;orthogonalLoop=1;jettySize=auto;html=1;entryX=0.5;entryY=0;entryDx=0;entryDy=0;" parent="1" source="_8BapqA1ZgfuwaxU-zGh-12" target="_8BapqA1ZgfuwaxU-zGh-19" edge="1">
          <mxGeometry relative="1" as="geometry" />
        </mxCell>
        <mxCell id="_8BapqA1ZgfuwaxU-zGh-12" value="" style="rounded=1;whiteSpace=wrap;html=1;fillColor=#E1D5E7;" parent="1" vertex="1">
          <mxGeometry x="-150" y="272.5" width="50" height="20" as="geometry" />
        </mxCell>
        <mxCell id="_8BapqA1ZgfuwaxU-zGh-14" value="&lt;div&gt;AP \(2\)&lt;/div&gt;&lt;div&gt;&lt;br&gt;&lt;/div&gt;" style="text;html=1;align=center;verticalAlign=middle;whiteSpace=wrap;rounded=0;" parent="1" vertex="1">
          <mxGeometry x="-155" y="280" width="60" height="20" as="geometry" />
        </mxCell>
        <mxCell id="_8BapqA1ZgfuwaxU-zGh-17" value="&lt;div&gt;\( \widehat{\mathbf{s}}_1, \mathbf{P}_1 \)&lt;br&gt;&lt;/div&gt;" style="text;html=1;align=center;verticalAlign=middle;whiteSpace=wrap;rounded=0;" parent="1" vertex="1">
          <mxGeometry x="-230" y="240" width="250" height="30" as="geometry" />
        </mxCell>
        <mxCell id="_8BapqA1ZgfuwaxU-zGh-19" value="" style="rounded=1;whiteSpace=wrap;html=1;fillColor=#E1D5E7;" parent="1" vertex="1">
          <mxGeometry x="-150" y="327.5" width="50" height="20" as="geometry" />
        </mxCell>
        <mxCell id="_8BapqA1ZgfuwaxU-zGh-20" value="&lt;div&gt;AP \(3\)&lt;/div&gt;&lt;div&gt;&lt;br&gt;&lt;/div&gt;" style="text;html=1;align=center;verticalAlign=middle;whiteSpace=wrap;rounded=0;" parent="1" vertex="1">
          <mxGeometry x="-155" y="340" width="60" height="20" as="geometry" />
        </mxCell>
        <mxCell id="_8BapqA1ZgfuwaxU-zGh-25" value="&lt;div&gt;\( \widehat{\mathbf{s}}_2, \mathbf{P}_2 \)&lt;br&gt;&lt;/div&gt;" style="text;html=1;align=center;verticalAlign=middle;whiteSpace=wrap;rounded=0;" parent="1" vertex="1">
          <mxGeometry x="-230" y="292.5" width="250" height="30" as="geometry" />
        </mxCell>
        <mxCell id="_8BapqA1ZgfuwaxU-zGh-30" value="&lt;div&gt;\( \widehat{\mathbf{s}}_{(l-1)}, \mathbf{P}_{(l-1)} \)&lt;br&gt;&lt;/div&gt;" style="text;html=1;align=center;verticalAlign=middle;whiteSpace=wrap;rounded=0;" parent="1" vertex="1">
          <mxGeometry x="-120" y="400" width="80" height="30" as="geometry" />
        </mxCell>
        <mxCell id="_8BapqA1ZgfuwaxU-zGh-33" style="edgeStyle=orthogonalEdgeStyle;rounded=0;orthogonalLoop=1;jettySize=auto;html=1;entryX=0.003;entryY=0.423;entryDx=0;entryDy=0;entryPerimeter=0;" parent="1" source="_8BapqA1ZgfuwaxU-zGh-6" target="_8BapqA1ZgfuwaxU-zGh-8" edge="1">
          <mxGeometry relative="1" as="geometry" />
        </mxCell>
        <mxCell id="e89aCWbwkYclgEGQYD-0-20" value="" style="edgeStyle=orthogonalEdgeStyle;rounded=0;orthogonalLoop=1;jettySize=auto;html=1;" edge="1" parent="1" source="_8BapqA1ZgfuwaxU-zGh-19" target="_8BapqA1ZgfuwaxU-zGh-27">
          <mxGeometry relative="1" as="geometry">
            <mxPoint x="-125" y="440" as="targetPoint" />
            <mxPoint x="-125" y="348" as="sourcePoint" />
          </mxGeometry>
        </mxCell>
        <mxCell id="e89aCWbwkYclgEGQYD-0-21" style="edgeStyle=orthogonalEdgeStyle;rounded=0;orthogonalLoop=1;jettySize=auto;html=1;entryX=0.5;entryY=0;entryDx=0;entryDy=0;" edge="1" parent="1" source="_8BapqA1ZgfuwaxU-zGh-27" target="_8BapqA1ZgfuwaxU-zGh-4">
          <mxGeometry relative="1" as="geometry" />
        </mxCell>
        <mxCell id="_8BapqA1ZgfuwaxU-zGh-27" value=". . . " style="text;html=1;align=center;verticalAlign=middle;whiteSpace=wrap;rounded=0;rotation=90;" parent="1" vertex="1">
          <mxGeometry x="-137.5" y="380" width="25" height="10" as="geometry" />
        </mxCell>
      </root>
    </mxGraphModel>
  </diagram>
</mxfile>
